<?xml version="1.0" encoding="utf-8"?>
<!-- Generator: Adobe Illustrator 25.0.1, SVG Export Plug-In . SVG Version: 6.00 Build 0)  -->
<svg version="1.1" id="Capa_1" xmlns="http://www.w3.org/2000/svg" xmlns:xlink="http://www.w3.org/1999/xlink" x="0px" y="0px"
	 viewBox="0 0 307 307" style="enable-background:new 0 0 307 307;" xml:space="preserve">
<style type="text/css">
	.st0{display:none;fill:#FEFEFE;}
	.st1{fill:#402314;}
	.st2{fill:#663C24;}
	.st3{fill:#B56729;}
	.st4{fill:#693A1E;}
	.st5{fill:#EBC184;}
</style>
<g>
	<g>
		<path class="st0" d="M339.3,158.8c0,62.9,0,125.7,0,188.6c0,1.4-0.3,1.7-1.7,1.7c-125.8,0-251.7,0-377.5,0c-1.4,0-1.7-0.3-1.7-1.7
			c0-125.8,0-251.7,0-377.5c0-1.4,0.3-1.7,1.7-1.7c125.8,0,251.7,0,377.5,0c1.4,0,1.7,0.3,1.7,1.7
			C339.3,32.8,339.3,95.8,339.3,158.8z"/>
		<path class="st1" d="M227.8,120.6c0,5.7-0.2,11.4,0.1,17.1c0.2,3.6-1.4,6.4-3.3,9.1c-0.9,1.2-1.3,2.5-1.3,3.9
			c0,9.7-0.1,19.5,0,29.2c0,2.6-0.6,4.8-2.2,6.7c-0.9,1.1-1.1,2.2-1.1,3.6c0.1,13.2,0.1,26.4,0.3,39.6c0,3.3-1,5.9-3.3,8.2
			c-1,0.9-1.4,1.9-1.4,3.3c0,5.3-0.2,10.5-0.1,15.8c0.1,3.9-1.1,7.2-4.1,9.7c-1.2,1-1.5,2.1-1.5,3.6c0.1,2.4-0.2,4.8,0,7.2
			c0.6,6.8-2.9,11.5-8.1,15.1c-6.7,4.6-14.2,7.3-21.9,9.6c-11.8,3.4-23.9,4.2-36.1,3.6c-11.6-0.6-23.2-1.8-34.1-6.3
			c-6.4-2.7-12.5-6-17.3-11.1c-1.5-1.5-2.7-3.2-3.8-5c-1-1.7-1.6-3.6-1.5-5.7c0.1-2.8,0-5.6,0-8.4c0-1.4-0.3-2.5-1.5-3.4
			c-2.4-1.8-3.5-4.2-3.5-7.2c0-5.8-0.2-11.7-0.2-17.5c0-1.2-0.3-2.2-1.2-3.1c-2.3-2.3-3.3-5-3.3-8.3c0.1-13.3,0.1-26.6,0.1-40
			c0-1.3-0.2-2.4-1.1-3.4c-1.4-1.7-2-3.6-2-5.8c0.1-5.7,0.2-11.4-0.1-17.1c-0.3-4.9-0.3-9.8-0.6-14.7c0-0.8-0.4-1.4-0.9-2
			c-2.2-2.6-3.3-5.6-3.5-9c-0.3-5.5,0.6-11,0.6-16.5c-0.1-6.4,0.1-12.8-0.1-19.2c-0.1-2.6,0.8-4.7,2.5-6.6c3.2-3.7,7.1-6.5,11.6-8.4
			c8.8-3.9,18.1-5.8,27.5-7.3c3.6-0.6,7.2-0.9,10.9-1.2c15.2-0.9,30.3-0.5,45.5-0.4c5.7,0.1,11.4,1.2,17.1,2c7,1.1,14,2.3,20.8,4.5
			c6.4,2,12.6,4.4,17.7,9c2.9,2.6,4.5,5.7,4.3,9.8C227.5,109.4,227.7,115,227.8,120.6C227.7,120.6,227.8,120.6,227.8,120.6z"/>
		<path class="st1" d="M144,21.4c0.1-0.1,0.2-0.3,0.4-0.4c1.9-1.7,3.6-3.6,5.6-5.2c0-0.1,0.1-0.1,0.1-0.1c0.7-0.1,1.2-0.5,1.7-1
			c0.1-0.1,0.3-0.2,0.4-0.3c0.8-0.2,1.5,0,2,0.8c-1.4,3.1-2.9,6.2-3.1,9.6c-0.3,5.7,2.1,10.5,5.4,15c2.2,2.9,4.6,5.7,6.5,8.8
			c6.1,9.9,1.5,19.8-4.5,25.5c-0.3,0.3-0.6,0.7-1.1,0.5c-0.6-0.3-0.4-0.9-0.4-1.3c0.3-4.3-0.5-8.4-2.4-12.2
			c-1.6-3.1-3.8-5.8-6.3-8.3c-2.6-2.7-5.2-5.5-7.2-8.7c-4.1-6.6-3.1-13.1,0.5-19.5c0.4-0.7,0.8-1.6,1.5-2.1
			C143.7,22.3,143.8,21.8,144,21.4z"/>
		<path class="st1" d="M140.8,71.1c-3.6-4-8.2-6.6-12.2-9.8c-3.8-3.1-5.2-7.3-4.6-12.1c0.6-4.7,2.4-9.1,5.1-12.9
			c0.3-0.5,0.6-1.2,1.4-1c0.7,0.3,0.3,1,0.3,1.5c-0.2,6.4,1.6,12.2,5.6,17.2c0.8,1.1,1.6,2.2,2.6,3.2
			C143.1,61.2,142.7,65.9,140.8,71.1z"/>
		<path class="st2" d="M150,15.8c-0.7,2-2.9,2.7-4.1,4.3c-0.3,0.5-0.8,1-1.5,0.9C145.9,18.9,147.8,17.1,150,15.8z"/>
		<path class="st2" d="M154.2,15.1c-0.7-0.3-1.3-0.5-2-0.8c0.2-0.2,0.5-0.4,0.7-0.5c0.6-0.3,1.2-1,1.8-0.4
			C155.4,14,154.5,14.6,154.2,15.1z"/>
		<path class="st2" d="M151.8,14.6c-0.1,1.1-0.8,1.3-1.7,1C150.6,15.2,151.1,14.8,151.8,14.6z"/>
		<path class="st2" d="M144,21.4c0,0.6,0,1.2-0.8,1.1C143.3,22,143.5,21.6,144,21.4z"/>
		<path class="st3" d="M218.5,107c-0.7,1.8-2.2,2.8-3.6,3.8c-5.9,4.2-12.7,6.3-19.6,8c-9.6,2.4-19.4,3.9-29.3,4.6
			c-7.2,0.5-14.5,0.8-21.7,0.6c-16.4-0.5-32.7-2.2-48.4-7.3c-5-1.6-9.8-3.8-14-7.2c-1-0.8-2.1-1.6-2.6-2.8c-0.4-1.8,0.9-2.6,1.9-3.5
			c2-1.8,4.3-3.1,6.8-4.2c9-4,18.5-6.1,28.1-7.4c7.8-1.1,15.6-1.7,23.5-2c4.6-0.2,9.2-0.4,13.7-0.2c17.8,0.8,35.5,2.3,52.5,8.2
			c4,1.4,7.8,3.2,11,6C217.8,104.4,219.1,105.3,218.5,107z"/>
		<path class="st4" d="M206.2,186.6c-3.2,2-6.9,2.7-10.4,3.7c-7.8,2.2-15.7,3.6-23.8,4.4c-4.2,0.5-8.5,0.7-12.7,0.9
			c-5,0.3-10,0.5-15,0.3c-6.3-0.3-12.7-0.6-19-1.3c-7.9-0.9-15.7-2.2-23.4-4.3c-4.9-1.3-9.7-3-14.2-5.3c-0.8-0.4-1.4-0.8-0.6-1.8
			c0.2-0.3,0.1-0.8,0.1-1.3c0-6.2-0.1-12.5,0-18.7c0-1.6-0.8-2.1-2.1-2.2c-1.6-0.1-1.3,1.1-1.3,2.1c0,6.3,0,12.6,0,19.1
			c-1.6-0.4-2.3-1.2-2.2-2.8c0-3.7,0-7.3,0-11c0-3.9-0.5-7.7-0.1-11.6c0.2-1.6,0.7-1.6,1.8-1c9.1,4.3,18.8,6.7,28.6,8.4
			c7,1.2,14,1.9,21.1,2.3c8.9,0.6,17.7,0.3,26.5,0.2c3.1,0,6.3,0.1,9.4-0.6c0.5,0.7,0.2,1.1-0.5,1.4c-0.4,0.1-0.8,0.2-1.2,0.4
			c-1.7,0.8-2.9,1.9-3.1,3.9c-0.4,0.3-0.9,0.3-1.3,0.1c-1.1-1-1.2-0.1-1.4,0.7c-0.2,5.5-0.1,11-0.1,16.4c0,1,0.1,2.1,1.5,2.1
			s1.7-1,1.8-2.1c0.2-1.6-0.3-3.2,0.4-4.7c1.1-0.5,1.2,0.3,1.3,1.1c0.2,1,0,2,0.1,2.9c0.1,0.4,0.1,0.9,0.7,0.9
			c0.4,0,0.5-0.5,0.6-0.8c0.3-1.1,0.5-2.3,0.6-3.4c0-1,0.1-2,0.4-2.9c0.2-0.6,0.4-1.2,1.3-0.8c0.8,1.3,0.4,2.8,0.4,4.2
			c0.1,1.1-0.1,2.2,0.1,3.3c0.1,1,0.6,1.6,1.7,1.6c1.1,0,1.2-0.9,1.2-1.7c-0.1-2.2,0.2-4.3,0.2-6.5c0-0.5,0-1,0.4-1.4
			c1.3-0.3,2.7-0.2,3.8-1.4c0.3-0.3,0.9-0.2,1.2,0.3c0.6,2,0.2,4,0.3,6.1c0,0.6,0,1.1,0,1.7c0.1,1,0.4,1.8,1.6,1.8
			c1.3,0,1.3-1,1.3-1.8c0-4.7,0-9.4,0-14.1c0-0.9-0.1-1.9,0.1-2.8c0.4-1.1,0.9-1.3,1.6-0.2c0.3,0.4,0.4,1,1,1.2
			c0.8-0.5,0.5-3.1,2.6-1.5c0.4,1.1,0.2,2.2,0.3,3.3c0.1,4.4-0.3,8.8,0.3,13.1c0.1,0.7-0.1,1.8,1.1,1.8c1.1,0,1.3-1,1.5-1.8
			c0.2-1,0.2-2.1,0.2-3.1c0-4.6,0.1-9.3-0.1-13.9c0.1-0.3,0.4-0.7,0.6-0.6c1.6,1.3,2.9-1.4,4.5-0.2c0.5,3.8,0.1,7.5,0.2,11.3
			c0.1,1.8-0.1,3.6,0.3,5.4c0.1,0.5,0,1.2,0.8,1.3c0.8,0.1,1.3-0.4,1.5-1.1c0.3-1.1,0.4-2.2,0.4-3.3c-0.1-5.1,0.2-10.3-0.2-15.4
			c1-1.7,3.2-2.2,5.7-1.1c0.5,0.8,0.5,1.7,0.5,2.5c0,5.3,0,10.5,0,15.8C204.8,185.1,206.4,185.5,206.2,186.6z"/>
		<path class="st4" d="M96.8,249c5.5,2.6,11,4.9,16.9,6.3c6.8,1.7,13.6,2.8,20.6,3.4c7.2,0.7,14.3,1,21.5,0.6
			c12.1-0.7,24.2-2.2,35.8-5.9c6.1-2,11.7-5,16.7-9c0.2-0.1,0.4-0.3,0.8-0.6c-0.1,3.5-0.3,6.7-0.8,9.9c-0.1,0.9-1,1.3-1.7,1.9
			c-6.2,4.8-13.4,7.1-20.8,8.9c-6.5,1.6-13.2,2.4-19.9,3.1c-8.5,0.9-16.9,0.9-25.4,0.6c-13.7-0.6-27.2-2.7-40.1-7.8
			c-0.7-0.3-1.5-0.7-2.2-1.1c-0.1-0.1-0.2-0.2-0.4-0.4v0c-0.2-2.4-1.3-4.4-2.4-6.4c-0.6-0.9-0.2-2.1,0-3.1
			C95.6,248.8,96.2,248.7,96.8,249z"/>
		<path class="st2" d="M147,138.2c-5.3,0.4-10.5-0.1-15.8-0.4c-14.7-0.9-29.3-2.7-43.3-7.7c-2.5-0.9-4.8-2.2-7.2-3.5
			c-0.7-0.3-1.2-0.9-1.4-1.7c-0.3-1.4-0.6-2.8-0.7-4.2c-0.1-1.7,0.6-2.1,2.1-1.2c4.2,2.5,8.8,4.3,13.4,5.8c7.8,2.4,15.9,4,24,5.1
			c13,1.8,26.1,2.1,39.2,1.8c9.5-0.2,18.9-1.1,28.3-2.8c6.9-1.3,13.6-2.8,20.3-5c3.9-1.3,7.8-2.8,11.5-4.7c2.9-1.4,3.5-1.1,3.2,2.2
			c-0.2,1.7-0.5,3.2-2.4,4.2c-7,3.9-14.6,5.9-22.4,7.6c-5.6,1.2-11.2,2.1-16.9,2.7c-6.9,0.7-13.9,1.3-20.8,1.6
			C154.4,138.1,150.7,138,147,138.2z"/>
		<path class="st5" d="M218.5,107c-0.4-2.3-2.2-3.3-3.8-4.5c-4.3-3.1-9.4-4.8-14.4-6.2c-10.1-2.9-20.4-4.4-30.8-5.4
			c-8.6-0.8-17.2-1.2-25.8-1c-15.3,0.5-30.5,1.6-45.3,5.9c-5.8,1.7-11.5,3.6-16.3,7.4c-1.2,0.9-2.2,2-2.7,3.5c-1.8-2.1-2-4-0.5-6.2
			c1.3-1.9,3.1-3.2,5-4.3c6.9-3.9,14.4-5.9,22.1-7.4c4.6-0.9,9.2-1.6,13.9-2c5.9-0.5,11.8-0.9,17.8-1.1c2.8-0.1,5.5-0.2,8.3-0.4
			c0.1,0,0.2,0,0.4,0c1.7,0,3.5,0,5.2,0c0.1,0,0.2,0,0.4,0c4.4,0.2,8.9,0.2,13.3,0.6c7.7,0.5,15.3,1.4,22.9,2.8
			c7,1.3,13.9,2.8,20.5,5.4c3.7,1.5,7.4,3.2,10.1,6.4C220.6,102.7,220.5,105,218.5,107z"/>
		<path class="st4" d="M170.8,208.5c2.6-0.1,5.2-0.2,7.8-0.4c1.3-0.1,1.8,0.3,2,1.7c0.7,5.8,0.2,11.6,0.3,17.4c0,3.2-2.9,6-6.1,6.6
			c-11.4,1.9-22.9,2-34.3,1.8c-6.6-0.2-13.1-0.9-19.7-1.9c-2.1-0.3-4.8-4-5-6.6c0-0.9,0-1.7,0-2.6c1.7-0.1,3.4,0,5,0.7
			c0.2,0.3,0.3,0.6,0.3,0.9c0.1,1.8,1.2,2.6,2.8,2.8c2.5,0.4,5,0.7,7.6,0.9c6.3,0.5,12.7,1.1,19.1,0.8c7-0.3,14.1-0.6,21.1-1.7
			c2.5-0.4,2.7-0.6,2.8-3.2c0-3.2,0-6.3,0-9.5c0-2.7,0-2.7-2.5-3.3C170.7,211.6,171.3,210,170.8,208.5z"/>
		<path class="st2" d="M187.6,169.8c-1.3-0.1-1.4,0.8-1.5,1.8c0,0.4,0.1,0.9-0.5,1.1c-0.6,0.1-0.7-0.4-0.9-0.7c-0.3-0.6-0.9-1-1-1.7
			c0-0.4-0.4-0.3-0.7,0c-1.3,0.9-2.7,1.2-4.2,0.8c-0.6-1.4-0.3-2.8-0.2-4.2c0.2-1.6,1.6-1.8,3-1.8c0.6,0,1.2,0.3,1.8,0.4
			c2.1,0.4,4.1,0.5,5.1-1.9c3.9-1,7.9-1.9,11.8-3c4.2-1.1,8.4-2.4,12.4-4.3c0.8-0.4,1.4-0.8,1.5,0.7c0.2,5.6,0.6,11.1,0.7,16.6
			c0,2.6-0.4,5.3-0.3,7.9c0,0.6-0.2,1.1-0.7,1.4c-2.5,1.4-4.9,3.2-7.8,3.6c-0.3-0.8-1.6-0.8-1.5-1.9c0.3-0.3,0.6-0.7,1-0.8
			c2.1-0.4,2.2-1.9,2.2-3.6c-0.1-4.1,0-8.2,0-12.3c0-3.3-0.2-3.4-3.2-2.3c-1.1,0-2.2,0-3.3,0c-0.8,0-1.6,0.1-1.9,1.1
			c-1.1,0.8-2.5,1-3.7,1.5c-0.1,0-0.3,0-0.3,0.1c-1.2,1.6-2.5,1.7-4.1,0.7C190,168.9,188.9,169.8,187.6,169.8z"/>
		<path class="st2" d="M170.8,208.5c1.4,1.1,0.8,2.6,0.7,4c-0.8,0.8-1.8,0.8-2.8,0.9c-2.4,0.1-4.8,0.4-7.2,0.5
			c-8.4,0.1-16.8,0.2-25.3,0c-3.8-0.1-7.5-0.6-11.3-0.9c-0.7-0.1-1.4-0.1-2-0.2c-1.3-0.1-1.8,0.5-1.8,1.8c0,2.7,0,5.5,0,8.2
			c0,0.9,0.1,1.8-0.6,2.5c-1.7,0-3.3,0.2-4.8-0.7c-0.4-3.2-0.4-6.5-0.3-9.7c0-1.8,0.2-3.6,0.4-5.3c0.1-1.2,0.5-1.8,2.1-1.4
			c2,0.5,4,0.3,6.1,0.5c9.8,0.9,19.6,0.9,29.5,0.8C159.3,209.3,165.1,209,170.8,208.5z"/>
		<path class="st2" d="M164.1,171.7c0.3-0.8-0.7-1.7,0-2.2c1.2-0.9,2.5-1.8,3.9-2.2c0.8-0.2,1-0.4,1-1.1c0.2,0,0.5,0,0.7,0
			c0.3,0.2,0.5,0.2,0.7,0c0.6,0,1.2,0,1.9,0c0.3,0.3,0.5,0.7,0.5,1.1c0,1.3-0.2,2.7,1.4,3.3c0.3,0.1,0.2,0.6-0.1,0.9
			c-0.2,0.1,0.1,0-0.2,0.1c-3.2,0.8-3.2,0.8-3.3,4.2c-0.1,1.9,0.5,3.8-0.5,5.6c-1.2,0.8-1,2.1-1.1,3.2c-0.1,1.5-0.3,2.9-0.7,4.3
			c-0.1,0.6,0,1.5-1.1,1.3c-1-0.2-1.3-0.7-1.3-1.7c0.1-1,0-2,0-2.9c0-0.6,0.1-1.1-0.7-1.3c-0.8-0.8-0.5-1.8-0.6-2.8
			C164.5,178.2,165.1,174.9,164.1,171.7z"/>
		<path class="st2" d="M96.8,249c-1.1,0.4-1.5,2.8-0.6,4c1.2,1.8,2.5,3.6,1.7,6c-3-1-5.5-2.8-7.8-4.8c-1.6-1.3-1.3-3.5-1.8-5.3
			c-0.3-1.4-0.3-2.8-0.4-4.2c-0.1-1.5,0.5-1.4,1.5-0.8c1.8,1.2,3.6,2.4,5.3,3.7C95.3,248.3,96.1,248.6,96.8,249z"/>
		<path class="st4" d="M174.2,171.3c0-0.1,0-0.2,0-0.2c-2.9-0.8-1.6-3.2-1.8-5c1.8-0.7,3.7-0.6,5.6-0.9c3.6-0.6,7.2-1.1,10.7-1.7
			c-0.4,2.7-2.6,3.5-5.9,2.3c-2.2-0.8-4-0.1-3.7,1.6c0.2,1.3-0.2,2.4-0.1,3.6c0.9,1.7,0.6,3.5,0.3,5.2c-1.2,0.8-1.7,0.7-2.2-0.5
			c-0.2-0.6,0-1.4-0.5-1.9c-0.7,0-0.9,0.9-1.6,0.8c-0.4,0-0.6-0.3-0.7-0.6c0.1-0.6-0.1-1.1-0.4-1.6
			C173.9,171.9,173.9,171.6,174.2,171.3z"/>
		<path class="st4" d="M140.7,291.2c0-1.9,0-3.7,0-5.6c0-1.1,0.6-1.4,1.5-1.3c0.9,0.1,2.2-0.4,2.2,1.2c0.1,3.9,0,7.8,0,11.7
			c0,1.4-1.1,1.2-2,1.3c-1,0-1.7-0.2-1.7-1.4C140.7,295.2,140.7,293.2,140.7,291.2C140.7,291.2,140.7,291.2,140.7,291.2z"/>
		<path class="st4" d="M170.5,293.2c0,0.6-0.1,1.1,0,1.7c0.2,1.8-1.1,1.9-2.3,2.2c-1.4,0.3-1.3-0.8-1.5-1.7c-0.6-3.5-0.2-7-0.3-10.5
			c0-1.6,1.2-1.5,2.4-1.6c1.3-0.1,1.4,0.7,1.3,1.7C169.9,287.7,170.5,290.4,170.5,293.2z"/>
		<path class="st4" d="M153,291.3c0,1.9,0,3.7,0,5.6c0,1.2-0.5,1.6-1.7,1.6c-1.1,0-2-0.2-2-1.5c0-3.7,0-7.4,0-11.1
			c0-1.3,0.8-1.6,2-1.6c1.1,0,1.7,0.4,1.7,1.6C152.9,287.7,153,289.5,153,291.3z"/>
		<path class="st4" d="M135.5,290.7c0,1.7,0,3.3,0,5c0,0.6,0.3,1.8-0.7,1.5c-1-0.3-2.9,0.6-3-1.3c-0.1-3.8-0.1-7.5,0-11.3
			c0-1.4,1.2-0.9,2-0.9c1-0.1,1.7,0.1,1.7,1.3C135.5,286.9,135.5,288.8,135.5,290.7C135.5,290.7,135.5,290.7,135.5,290.7z"/>
		<path class="st4" d="M161.5,290.9c0,1.8-0.1,3.6,0,5.4c0.1,1.5-0.7,1.7-1.9,1.8c-1.4,0.1-1.5-0.6-1.5-1.7c0-3.6,0.1-7.3,0-10.9
			c0-1.5,0.7-1.5,1.8-1.6c1.2,0,1.6,0.4,1.6,1.6C161.5,287.4,161.5,289.2,161.5,290.9z"/>
		<path class="st4" d="M186.8,286c0,1.5-0.1,3,0,4.4c0.1,1.6-1,2.1-2.2,2.5c-0.9,0.2-1.6,0-1.5-1.2c0.2-3.4-0.2-6.8,0.3-10.1
			c0.2-1.3,0.9-1.6,2-1.6c1.4-0.1,1.4,0.8,1.4,1.8C186.8,283.2,186.8,284.6,186.8,286z"/>
		<path class="st4" d="M178.7,288.5c0,1.5,0,3.1,0,4.6c0,1.3-1.4,2.4-2.7,2c-0.7-0.2-0.7-0.6-0.7-1.1c0-3.4,0-6.8,0-10.2
			c0-1.5,1-2,2.2-2c1.4-0.1,1.2,1.1,1.2,2C178.7,285.4,178.7,286.9,178.7,288.5z"/>
		<path class="st4" d="M126.6,289.7c0,1.6,0,3.2,0,4.8c0,0.7,0.1,1.5-1,1.4c-0.9-0.1-2.3,0.1-2.3-1.2c-0.1-3.6-0.1-7.3,0-10.9
			c0-1.2,1-0.8,1.7-0.9c0.9-0.1,1.6,0.1,1.6,1.2C126.6,286,126.6,287.8,126.6,289.7C126.6,289.7,126.6,289.7,126.6,289.7z"/>
		<path class="st4" d="M118.4,287.9c-0.1,1.4,0.3,2.9-0.3,4.4c-0.2,0.5,0.4,1.7-0.7,1.5c-1-0.1-2.1-0.3-2.4-1.7
			c-0.3-1.3-0.5-2.6-0.3-3.8c0.4-2,0.3-4,0.3-6.1c0-0.8-0.1-1.7,1.2-1.6c1,0.1,1.7,0.3,1.9,1.5C118.4,284,118.3,285.9,118.4,287.9z"
			/>
		<path class="st4" d="M109.8,284.9c0,1.4,0.1,2.8,0,4.3c0,0.6,0.5,1.7-0.5,1.6c-1,0-2.4-0.2-2.4-1.8c0-2.2,0-4.3,0-6.5
			c0-0.9-0.1-1.7,0-2.6c0.1-0.6-0.5-1.8,0.7-1.8c1.1,0,2.3,0.4,2.3,1.9C109.8,281.7,109.8,283.3,109.8,284.9z"/>
		<path class="st4" d="M194.3,286.2c0.1,1.5-0.1,2.7-1.6,3.4c-0.8,0.4-1.4,0.4-1.6-0.7c-0.1-0.5-0.3-1.1-0.2-1.6
			c0.4-2.7,0.3-5.5,0.3-8.3c0-1.1,0.7-1.6,1.6-1.6c1.1-0.1,1,0.9,1,1.6C193.9,281.4,193.9,283.8,194.3,286.2z"/>
		<path class="st4" d="M102.4,281.5c0,1.4,0,2.8,0,4.2c0,0.4,0.1,0.9-0.4,1.1c-0.6,0.2-0.9-0.2-1.2-0.6c-0.2-0.3-0.5-0.6-0.5-0.9
			c0-2.9-0.4-5.8,0.2-8.6c0.1-0.5-0.1-1.3,0.8-1.1c0.7,0.1,1.1,0.6,1.1,1.3C102.4,278.4,102.4,280,102.4,281.5
			C102.4,281.5,102.4,281.5,102.4,281.5z"/>
		<path class="st4" d="M198.7,280.9c0-1.3,0-2.6,0-3.9c0-1,0.3-2,1.5-1.9c1.2,0.1,0.7,1.1,0.7,1.8c0.1,1.9,0,3.7,0,5.6
			c0,0.7-0.1,1.3-0.3,2c-0.2,0.8-0.7,1.6-1.4,1.5c-0.9-0.1-0.4-1.1-0.5-1.7C198.7,283.2,198.7,282.1,198.7,280.9z"/>
		<path class="st4" d="M170.5,166.1c-0.2,0.4-0.5,0.4-0.7,0C170,166.1,170.2,166.1,170.5,166.1z"/>
		<path class="st2" d="M151.9,85.2c-0.1,0-0.2,0-0.4,0C151.6,85.1,151.7,85.1,151.9,85.2z"/>
		<path class="st2" d="M146.3,85.3c-0.1,0-0.3,0-0.4,0C146,85.1,146.2,85.1,146.3,85.3z"/>
		<path class="st2" d="M97.9,259.1c0.1,0.1,0.3,0.2,0.4,0.4C98.2,259.3,98.1,259.2,97.9,259.1z"/>
		<path class="st5" d="M183.8,104.4c-0.3,1.7-1.3,3-2.5,4c-4.3,3.6-9.6,5.4-14.8,7.1c-4.6,1.5-9.5,2.1-13.7,4.4
			c-2.6,1.4-4.7,1.2-7.3,0c-4.8-2.3-10.1-3.2-15.2-4.8c-5.2-1.6-10.4-3.3-14.8-6.7c-3.6-2.8-3.3-5.2,0.9-7c4.7-2,9.6-2.4,14.6-2
			c5.9,0.4,11.5,1.6,16.5,4.9c0.5,0.3,0.8,0.2,1.2-0.1c4.1-3.2,8.9-4.6,13.9-5.1c5.4-0.5,10.9-0.6,16.2,1.3c1.5,0.5,2.8,1.2,4,2.3
			C183.4,103,183.8,103.6,183.8,104.4z"/>
		<path class="st1" d="M156,181.8c0,2.6,0.1,5.2,0,7.8c-0.1,2.4-1.5,3.4-3.8,2.6c-0.4-0.1-0.6-0.4-0.6-0.8c-0.1-0.5-0.3-1.1-0.3-1.6
			c0-5.1-0.1-10.1,0-15.2c0-2.2,0.6-2.4,3-2.4c1.9,0,1.8,1.2,1.8,2.5C156,176.9,156,179.4,156,181.8z"/>
		<path class="st1" d="M141.8,182c0-2.7,0.1-5.3,0-8c-0.1-1.8,0.9-2,2.3-2c1.4,0,2.2,0.2,2.2,1.9c0,3.1,0.5,6.2,0.3,9.2
			c-0.2,2.5-0.5,5-0.4,7.6c0.1,1.7-1.2,1.4-2.2,1.4c-1,0-2.2,0.2-2.2-1.4C141.9,187.8,141.8,184.9,141.8,182
			C141.8,182,141.8,182,141.8,182z"/>
		<path class="st1" d="M137,181.8c0,2.7-0.1,5.4,0,8.2c0.1,2.1-1.4,1.9-2.5,2.1c-1.3,0.1-2-0.7-2-2.1c0-5.6,0-11.2,0-16.9
			c0-1,0.1-1.9,1.4-1.7c1.3,0.1,3-0.3,3,1.8C137,175.9,137,178.9,137,181.8C137,181.8,137,181.8,137,181.8z"/>
		<path class="st1" d="M127.7,180.6c0,3,0,5.4,0,7.7c-0.1,2.6-0.7,3-3.2,2.4c-1.1-0.3-1.2-0.8-1.2-1.7c0-2.8,0.2-5.7-0.1-8.5
			c-0.3-2.7,0.3-5.4,0.1-8.1c-0.1-1.1,0.2-1.9,1.5-1.8c1.1,0.1,2.3-0.5,2.6,1.4C127.9,175.1,127.5,178.2,127.7,180.6z"/>
		<path class="st1" d="M164.1,171.7c1.3,0.5,1.1,1.7,1.1,2.7c0,3.3,0,6.7,0,10c0,1.8,0,3.6,0,5.4c0,1.8-1.3,2.2-2.7,2.3
			c-1.3,0-1.7-1.1-1.7-2c-0.1-5.7,0-11.5,0-17.2c0-0.2,0.2-0.4,0.3-0.6c0.4-0.4,0.9-0.7,1.5-0.4
			C163.2,171.7,163.6,171.7,164.1,171.7z"/>
		<path class="st1" d="M118.8,179.8c-0.2,2.4,0.3,5.4-0.3,8.3c-0.2,0.7-0.1,1.6-1.2,1.4c-1-0.2-2.4,0.2-2.6-1.4
			c-0.1-0.7-0.3-1.3-0.3-2c0-4.5,0-9,0-13.5c0-0.8,0.2-1.5,0.3-2.2c0.2-0.9,0.5-1.4,1.4-1.4c0.9,0,1.9-0.2,2.3,1
			c0.3,0.7,0.4,1.4,0.4,2.2C118.7,174.6,118.8,176.9,118.8,179.8z"/>
		<path class="st1" d="M174.5,173.6c0.1,0.3,0.2,0.5,0.3,0.8c0.6,0.5,0.5,1.3,0.4,1.9c-0.2,1.6-0.1,3.2-0.7,4.8
			c-0.1,2.7-0.3,5.3-0.3,8c0,1.2-0.1,2.1-1.7,2.1c-1.6,0-2.3-0.6-2.3-2.1c0-2.5,0-5.1,0-7.6c0-2.3,0-4.7,0-7c0-2.9,0.1-3,3-3
			c0.4,0,0.7,0,1.1,0c0,0.4,0,0.7,0,1.1C174.5,172.7,174.6,173.1,174.5,173.6z"/>
		<path class="st1" d="M106.1,178.7c0-3,0-6.1,0-9.1c0-1.1,0.2-2.1,1.7-2c1.4,0,2,0.7,2,2c0,6,0,12,0,18c0,1.4-0.5,2-2,2
			c-1.5,0-1.8-0.7-1.7-2C106.2,184.6,106.1,181.7,106.1,178.7z"/>
		<path class="st1" d="M101.7,177.1c0,3,0,5.9,0,8.9c0,0.8,0.1,1.7-0.9,2c-0.8,0.2-2.8-1.3-2.8-2.1c0-6.2,0-12.4,0-18.6
			c0-0.8,0.1-1.5,1.1-1.6c0.9,0,1.9-0.2,2.3,1c0.2,0.6,0.2,1.2,0.2,1.8C101.7,171.4,101.7,174.2,101.7,177.1z"/>
		<path class="st1" d="M195.8,168.3c0.9-1.4,2.4-1.2,3.7-1.5c0.5,1.5,0.4,3.1,0.4,4.6c-0.1,4.8,0.4,9.5-0.3,14.3
			c-0.1,0.9-2,2.2-2.9,1.9c-0.6-0.2-0.4-0.7-0.5-1.1c-0.5-2.9-0.3-5.9-0.4-8.9C195.8,174.5,195.8,171.4,195.8,168.3z"/>
		<path class="st1" d="M187.6,169.8c1.1-0.8,2.2-1.7,3.7-0.7c0.3,1,0.4,2,0.3,3.1c-0.2,5.1,0.3,10.2-0.3,15.4
			c-0.2,1.7-1.3,1.5-2.4,1.6c-1.3,0.1-0.9-1-1-1.7C187.2,181.6,187.8,175.7,187.6,169.8z"/>
		<path class="st1" d="M179,176.5c0-1.9,0-3.7,0-5.6c1.4-0.2,2.7-0.5,4.1-0.7c0,5.9,0,11.9,0,17.8c0,1,0.1,1.9-1.4,1.9
			c-1.5,0-2.6-0.2-2.6-1.9c0-2.8,0-5.7,0-8.5C178.3,178.5,178.3,177.5,179,176.5z"/>
		<path class="st1" d="M94.2,174.7c0,2.9,0,5.8,0,8.7c0,0.8-0.4,2.4-0.7,2.2c-0.9-0.5-2.2-0.4-2.7-1.7c-0.2-0.6-0.3-1.2-0.3-1.8
			c0-5.5,0-11,0-16.5c0-0.8-0.3-1.9,1-2c1.7-0.2,2.7,0.6,2.7,2.2C94.2,168.7,94.2,171.7,94.2,174.7z"/>
		<path class="st1" d="M204.7,165.7c0.4-1.8,2-1.2,3-1.3c1,0,0.7,1.2,0.7,2c0,4.6,0,9.3,0,13.9c0,3.6,0,3.6-3.7,4.4
			C204.7,178.4,204.7,172,204.7,165.7z"/>
		<path class="st2" d="M179,176.5c0,1,0,2,0,3c-0.3,0.1-0.8,0.1-0.8,0.3c-0.8,1.8-2.2,1.4-3.6,1.2c-0.4-2.2,0.4-4.4,0.3-6.7
			c2.1-1.6,2.1-1.6,2.7,1.2C177.7,176.3,178.2,176.5,179,176.5z"/>
		<path class="st2" d="M162.7,171.7c-0.5,0.3-0.9,0.4-1.5,0.4c0-0.6,0.3-1.1,0.9-1.2C162.6,170.7,162.6,171.3,162.7,171.7z"/>
		<path class="st2" d="M161.8,169.6c0.1,0,0.3,0.1,0.3,0.1c0,0.1-0.1,0.2-0.1,0.3c-0.1,0-0.3-0.1-0.3-0.1
			C161.7,169.8,161.8,169.7,161.8,169.6z"/>
		<path class="st1" d="M120.6,225.2c0-3.8,0-7.7,0-11.5c0-1.1,0.3-1.6,1.5-1.5c4,0.4,8.1,0.7,12.1,1c0.6,0,1.2,0.1,1.8,0.1
			c8.2,0,16.4,0.1,24.6,0c3.6,0,7.3-0.5,10.9-0.7c3.4,0.1,3.4-0.6,3.4,3.5c0,3.5,0,7,0,10.6c0,1.7-0.5,2.6-2.5,2.8
			c-5.9,0.7-11.7,1.1-17.6,1.5c-6.4,0.5-12.7,0.1-19-0.2c-4-0.2-8.1-0.5-12.1-1.3C120.7,228.8,120.3,228.3,120.6,225.2z"/>
		<path class="st2" d="M174.5,173.6c-0.4-0.3-0.3-0.7-0.3-1.1C175,172.6,175.2,173,174.5,173.6z"/>
	</g>
</g>
</svg>
